<?xml version="1.0" encoding="UTF-8" standalone="no"?>
<svg xmlns="http://www.w3.org/2000/svg" xmlns:xlink="http://www.w3.org/1999/xlink" xmlns:svg="http://www.w3.org/2000/svg" version="1.1" baseProfile="full" preserveAspectRatio="xMidYMid meet" width="100" height="100" viewBox="0 0 100 100" stroke="white" stroke-width="5" stroke-linecap="round" stroke-linejoin="round" fill="none">
<path stroke-width="3" fill="white" d="m 41.5,88.7 -1,-77.2 -16.8,25.6 -18.6,0.5 v 27.7 l 18.9,1.6 z" />
<path d="m 50.9,38.6 a 8.7,12.8 0 0 1 7.6,6.3 8.7,12.8 0 0 1 0.1,12.8 8.7,12.8 0 0 1 -7.6,6.4" />
<path d="M 63,28.6 A 12.7,22.6 0 0 1 74.2,39.3 12.7,22.6 0 0 1 74.3,62 12.7,22.6 0 0 1 63.2,73.4" />
<path d="m 75.8,15.6 a 16.9,33.5 0 0 1 14.7,17.2 16.9,33.5 0 0 1 0,33.5 16.9,33.5 0 0 1 -14.7,17.2" />
</svg>